<svg width="31" height="31" viewBox="0 0 31 31" fill="none" xmlns="http://www.w3.org/2000/svg">
<path d="M25.8327 13.5628C25.4901 13.5628 25.1616 13.6989 24.9193 13.9411C24.6771 14.1834 24.541 14.5119 24.541 14.8545V23.8962C24.541 24.2387 24.4049 24.5673 24.1627 24.8095C23.9205 25.0517 23.5919 25.1878 23.2493 25.1878H5.16602C4.82344 25.1878 4.4949 25.0517 4.25267 24.8095C4.01044 24.5673 3.87435 24.2387 3.87435 23.8962V13.5628C3.87435 13.2203 4.01044 12.8917 4.25267 12.6495C4.4949 12.4072 4.82344 12.2712 5.16602 12.2712H7.74935C8.03102 12.2859 8.30976 12.208 8.54299 12.0494C8.77623 11.8908 8.95114 11.6602 9.04102 11.3928L9.73852 9.27449C9.82517 9.01794 9.99026 8.79511 10.2105 8.6375C10.4306 8.47988 10.6948 8.39546 10.9656 8.39616H18.0827C18.4253 8.39616 18.7538 8.26007 18.996 8.01784C19.2383 7.7756 19.3743 7.44706 19.3743 7.10449C19.3743 6.76192 19.2383 6.43338 18.996 6.19115C18.7538 5.94891 18.4253 5.81283 18.0827 5.81283H10.901C10.0893 5.81434 9.29849 6.07075 8.6403 6.54585C7.98211 7.02096 7.48974 7.69077 7.23268 8.46074L6.81935 9.75241H5.16602C4.1383 9.75241 3.15268 10.1607 2.42598 10.8874C1.69927 11.6141 1.29102 12.5997 1.29102 13.6274V23.9607C1.29102 24.9885 1.69927 25.9741 2.42598 26.7008C3.15268 27.4275 4.1383 27.8357 5.16602 27.8357H23.2493C24.2771 27.8357 25.2627 27.4275 25.9894 26.7008C26.7161 25.9741 27.1243 24.9885 27.1244 23.9607V14.9191C27.1331 14.7441 27.1062 14.5692 27.0452 14.4049C26.9842 14.2407 26.8905 14.0906 26.7696 13.9637C26.6488 13.8368 26.5034 13.7359 26.3424 13.6669C26.1813 13.598 26.0079 13.5626 25.8327 13.5628ZM14.2077 12.2712C13.1858 12.2712 12.1869 12.5742 11.3372 13.1419C10.4876 13.7096 9.82536 14.5165 9.43431 15.4606C9.04325 16.4047 8.94094 17.4436 9.14029 18.4458C9.33965 19.448 9.83173 20.3686 10.5543 21.0912C11.2769 21.8138 12.1975 22.3059 13.1997 22.5052C14.202 22.7046 15.2408 22.6023 16.1849 22.2112C17.129 21.8202 17.9359 21.1579 18.5036 20.3083C19.0713 19.4586 19.3743 18.4597 19.3743 17.4378C19.3743 16.0675 18.83 14.7534 17.8611 13.7844C16.8921 12.8155 15.578 12.2712 14.2077 12.2712ZM14.2077 20.0212C13.6967 20.0212 13.1973 19.8696 12.7725 19.5858C12.3476 19.3019 12.0165 18.8985 11.821 18.4264C11.6255 17.9544 11.5743 17.435 11.674 16.9338C11.7737 16.4327 12.0197 15.9724 12.381 15.6111C12.7423 15.2498 13.2026 15.0038 13.7037 14.9041C14.2048 14.8045 14.7242 14.8556 15.1963 15.0511C15.6683 15.2467 16.0718 15.5778 16.3556 16.0026C16.6395 16.4274 16.791 16.9269 16.791 17.4378C16.791 18.123 16.5188 18.78 16.0344 19.2645C15.5499 19.749 14.8928 20.0212 14.2077 20.0212ZM28.416 5.81283H27.1244V4.52116C27.1244 4.17859 26.9883 3.85005 26.746 3.60781C26.5038 3.36558 26.1753 3.22949 25.8327 3.22949C25.4901 3.22949 25.1616 3.36558 24.9193 3.60781C24.6771 3.85005 24.541 4.17859 24.541 4.52116V5.81283H23.2493C22.9068 5.81283 22.5782 5.94891 22.336 6.19115C22.0938 6.43338 21.9577 6.76192 21.9577 7.10449C21.9577 7.44706 22.0938 7.7756 22.336 8.01784C22.5782 8.26007 22.9068 8.39616 23.2493 8.39616H24.541V9.68783C24.541 10.0304 24.6771 10.3589 24.9193 10.6012C25.1616 10.8434 25.4901 10.9795 25.8327 10.9795C26.1753 10.9795 26.5038 10.8434 26.746 10.6012C26.9883 10.3589 27.1244 10.0304 27.1244 9.68783V8.39616H28.416C28.7586 8.39616 29.0871 8.26007 29.3294 8.01784C29.5716 7.7756 29.7077 7.44706 29.7077 7.10449C29.7077 6.76192 29.5716 6.43338 29.3294 6.19115C29.0871 5.94891 28.7586 5.81283 28.416 5.81283Z" fill="#00808B"/>
</svg>