<svg width="32" height="32" viewBox="0 0 32 32" fill="none" xmlns="http://www.w3.org/2000/svg">
<circle cx="16" cy="16" r="16" fill="#00808B"/>
<path d="M22.7104 11.2099C22.6175 11.1161 22.5069 11.0417 22.385 10.991C22.2632 10.9402 22.1324 10.9141 22.0004 10.9141C21.8684 10.9141 21.7377 10.9402 21.6159 10.991C21.494 11.0417 21.3834 11.1161 21.2904 11.2099L13.8404 18.6699L10.7104 15.5299C10.6139 15.4366 10.5 15.3633 10.3751 15.3141C10.2503 15.2649 10.1169 15.2408 9.98276 15.2431C9.84858 15.2454 9.71617 15.2741 9.59309 15.3276C9.47001 15.3811 9.35868 15.4583 9.26544 15.5549C9.1722 15.6514 9.09889 15.7653 9.04968 15.8902C9.00048 16.015 8.97635 16.1484 8.97867 16.2825C8.98099 16.4167 9.00972 16.5491 9.06321 16.6722C9.1167 16.7953 9.19392 16.9066 9.29044 16.9999L13.1304 20.8399C13.2234 20.9336 13.334 21.008 13.4559 21.0588C13.5777 21.1095 13.7084 21.1357 13.8404 21.1357C13.9725 21.1357 14.1032 21.1095 14.225 21.0588C14.3469 21.008 14.4575 20.9336 14.5504 20.8399L22.7104 12.6799C22.8119 12.5862 22.893 12.4726 22.9484 12.3461C23.0038 12.2196 23.0324 12.083 23.0324 11.9449C23.0324 11.8068 23.0038 11.6702 22.9484 11.5437C22.893 11.4172 22.8119 11.3035 22.7104 11.2099Z" fill="white"/>
</svg>
