<svg width="32" height="31" viewBox="0 0 32 31" fill="none" xmlns="http://www.w3.org/2000/svg">
<path d="M18.2981 15.8119C18.8749 15.2521 19.3376 14.5596 19.6547 13.7816C19.9718 13.0036 20.1359 12.1582 20.1359 11.3028C20.1359 9.69543 19.5664 8.15389 18.5527 7.0173C17.539 5.88071 16.1642 5.24219 14.7306 5.24219C13.297 5.24219 11.9221 5.88071 10.9084 7.0173C9.89473 8.15389 9.32524 9.69543 9.32524 11.3028C9.32523 12.1582 9.48935 13.0036 9.80645 13.7816C10.1236 14.5596 10.5862 15.2521 11.1631 15.8119C9.64971 16.5802 8.36575 17.821 7.4647 19.3859C6.56364 20.9508 6.08362 22.7735 6.08203 24.6362C6.08203 24.9576 6.19593 25.2659 6.39867 25.4933C6.60141 25.7206 6.87638 25.8483 7.1631 25.8483C7.44982 25.8483 7.72479 25.7206 7.92753 25.4933C8.13027 25.2659 8.24417 24.9576 8.24417 24.6362C8.24417 22.7073 8.92756 20.8575 10.144 19.4936C11.3604 18.1296 13.0103 17.3634 14.7306 17.3634C16.4509 17.3634 18.1007 18.1296 19.3172 19.4936C20.5336 20.8575 21.217 22.7073 21.217 24.6362C21.217 24.9576 21.3309 25.2659 21.5336 25.4933C21.7364 25.7206 22.0114 25.8483 22.2981 25.8483C22.5848 25.8483 22.8598 25.7206 23.0625 25.4933C23.2652 25.2659 23.3791 24.9576 23.3791 24.6362C23.3776 22.7735 22.8975 20.9508 21.9965 19.3859C21.0954 17.821 19.8115 16.5802 18.2981 15.8119ZM14.7306 14.9392C14.0891 14.9392 13.4621 14.7259 12.9288 14.3263C12.3954 13.9268 11.9797 13.3588 11.7343 12.6944C11.4888 12.0299 11.4246 11.2988 11.5497 10.5934C11.6748 9.88799 11.9837 9.24006 12.4373 8.7315C12.8909 8.22295 13.4687 7.87662 14.0979 7.73631C14.727 7.596 15.3791 7.66801 15.9717 7.94324C16.5643 8.21846 17.0708 8.68455 17.4272 9.28254C17.7836 9.88054 17.9738 10.5836 17.9738 11.3028C17.9738 12.2672 17.6321 13.1922 17.0239 13.8741C16.4157 14.5561 15.5907 14.9392 14.7306 14.9392ZM25.2602 15.327C25.9521 14.4535 26.404 13.3744 26.5616 12.2196C26.7192 11.0648 26.5758 9.8835 26.1486 8.81795C25.7214 7.7524 25.0286 6.848 24.1537 6.21361C23.2788 5.57922 22.2589 5.24188 21.217 5.24219C20.9303 5.24219 20.6553 5.36989 20.4526 5.59721C20.2498 5.82453 20.1359 6.13284 20.1359 6.45431C20.1359 6.77579 20.2498 7.08409 20.4526 7.31141C20.6553 7.53873 20.9303 7.66643 21.217 7.66643C22.0772 7.66643 22.9021 8.04955 23.5103 8.7315C24.1185 9.41345 24.4602 10.3384 24.4602 11.3028C24.4587 11.9395 24.3081 12.5645 24.0235 13.1154C23.739 13.6664 23.3304 14.1239 22.8386 14.4422C22.6783 14.5459 22.5445 14.6939 22.4498 14.8722C22.3552 15.0505 22.3029 15.253 22.2981 15.4604C22.2935 15.6662 22.3358 15.8698 22.4209 16.0522C22.5061 16.2346 22.6312 16.3897 22.7846 16.5028L23.2062 16.818L23.3467 16.9028C24.6498 17.5958 25.7492 18.6919 26.5153 20.062C27.2814 21.4321 27.6824 23.0191 27.671 24.6362C27.671 24.9576 27.7849 25.2659 27.9876 25.4933C28.1904 25.7206 28.4653 25.8483 28.7521 25.8483C29.0388 25.8483 29.3137 25.7206 29.5165 25.4933C29.7192 25.2659 29.8331 24.9576 29.8331 24.6362C29.842 22.7761 29.4265 20.9443 28.6261 19.315C27.8257 17.6857 26.667 16.3129 25.2602 15.327Z" fill="#00808B"/>
<path d="M4.573 16.2023C3.88115 15.2966 3.42922 14.1777 3.2716 12.9804C3.11399 11.7831 3.25741 10.5583 3.68461 9.45352C4.11181 8.34874 4.80457 7.41104 5.6795 6.75329C6.55444 6.09553 7.57425 5.74577 8.6162 5.74609C8.90291 5.74609 9.17789 5.8785 9.38063 6.11419C9.58337 6.34988 9.69727 6.66954 9.69727 7.00285C9.69727 7.33616 9.58337 7.65582 9.38063 7.89151C9.17789 8.1272 8.90291 8.2596 8.6162 8.2596C7.75604 8.2596 6.93112 8.65683 6.3229 9.36389C5.71468 10.071 5.37299 11.0299 5.37299 12.0299C5.37452 12.69 5.5251 13.338 5.80967 13.9092C6.09425 14.4805 6.50284 14.9548 6.99459 15.2849C7.15487 15.3923 7.28874 15.5458 7.38338 15.7307C7.47803 15.9155 7.53027 16.1255 7.53513 16.3405C7.53965 16.5539 7.49736 16.7651 7.41225 16.9542C7.32714 17.1433 7.202 17.304 7.04864 17.4213L6.62703 17.7481L6.48649 17.8361C5.18337 18.5546 4.08402 19.691 3.3179 21.1116C2.55178 22.5321 2.15081 24.1776 2.16221 25.8542C2.16221 26.1875 2.04831 26.5071 1.84557 26.7428C1.64283 26.9785 1.36786 27.1109 1.08114 27.1109C0.794425 27.1109 0.51945 26.9785 0.31671 26.7428C0.113971 26.5071 7.34329e-05 26.1875 7.34329e-05 25.8542C-0.00876427 23.9256 0.406746 22.0264 1.20712 20.3371C2.0075 18.6478 3.16615 17.2244 4.573 16.2023Z" fill="#00808B"/>
<path d="M23 17.744C27.3055 17.744 30.75 14.133 30.75 9.73627C30.75 5.3395 27.3055 1.72852 23 1.72852C18.6945 1.72852 15.25 5.3395 15.25 9.73627C15.25 14.133 18.6945 17.744 23 17.744Z" fill="#00808B" stroke="white" stroke-width="1.5"/>
<path d="M25.7852 9.4786H23.2477V6.84767C23.2477 6.73137 23.2031 6.61984 23.1238 6.53761C23.0445 6.45538 22.9369 6.40918 22.8247 6.40918C22.7126 6.40918 22.605 6.45538 22.5257 6.53761C22.4464 6.61984 22.4018 6.73137 22.4018 6.84767V9.4786H19.8643C19.7522 9.4786 19.6446 9.5248 19.5653 9.60703C19.486 9.68927 19.4414 9.8008 19.4414 9.91709C19.4414 10.0334 19.486 10.1449 19.5653 10.2272C19.6446 10.3094 19.7522 10.3556 19.8643 10.3556H22.4018V12.9865C22.4018 13.1028 22.4464 13.2143 22.5257 13.2966C22.605 13.3788 22.7126 13.425 22.8247 13.425C22.9369 13.425 23.0445 13.3788 23.1238 13.2966C23.2031 13.2143 23.2477 13.1028 23.2477 12.9865V10.3556H25.7852C25.8973 10.3556 26.0049 10.3094 26.0842 10.2272C26.1635 10.1449 26.2081 10.0334 26.2081 9.91709C26.2081 9.8008 26.1635 9.68927 26.0842 9.60703C26.0049 9.5248 25.8973 9.4786 25.7852 9.4786Z" fill="white" stroke="white" stroke-width="0.5"/>
</svg>
