<svg width="31" height="30" viewBox="0 0 31 30" fill="none" xmlns="http://www.w3.org/2000/svg">
    <path d="M18.2981 14.8121C18.8749 14.2523 19.3376 13.5599 19.6547 12.7819C19.9718 12.0038 20.1359 11.1585 20.1359 10.303C20.1359 8.69567 19.5664 7.15413 18.5527 6.01754C17.539 4.88096 16.1642 4.24243 14.7306 4.24243C13.297 4.24243 11.9221 4.88096 10.9084 6.01754C9.89473 7.15413 9.32524 8.69567 9.32524 10.303C9.32523 11.1585 9.48935 12.0038 9.80645 12.7819C10.1236 13.5599 10.5862 14.2523 11.1631 14.8121C9.64971 15.5805 8.36575 16.8213 7.4647 18.3861C6.56364 19.951 6.08362 21.7737 6.08203 23.6364C6.08203 23.9579 6.19593 24.2662 6.39867 24.4935C6.60141 24.7208 6.87638 24.8485 7.1631 24.8485C7.44982 24.8485 7.72479 24.7208 7.92753 24.4935C8.13027 24.2662 8.24417 23.9579 8.24417 23.6364C8.24417 21.7075 8.92756 19.8577 10.144 18.4938C11.3604 17.1299 13.0103 16.3637 14.7306 16.3637C16.4509 16.3637 18.1007 17.1299 19.3172 18.4938C20.5336 19.8577 21.217 21.7075 21.217 23.6364C21.217 23.9579 21.3309 24.2662 21.5336 24.4935C21.7364 24.7208 22.0114 24.8485 22.2981 24.8485C22.5848 24.8485 22.8598 24.7208 23.0625 24.4935C23.2652 24.2662 23.3791 23.9579 23.3791 23.6364C23.3776 21.7737 22.8975 19.951 21.9965 18.3861C21.0954 16.8213 19.8115 15.5805 18.2981 14.8121ZM14.7306 13.9394C14.0891 13.9394 13.4621 13.7261 12.9288 13.3266C12.3954 12.927 11.9797 12.3591 11.7343 11.6946C11.4888 11.0302 11.4246 10.299 11.5497 9.59363C11.6748 8.88824 11.9837 8.2403 12.4373 7.73175C12.8909 7.22319 13.4687 6.87686 14.0979 6.73655C14.727 6.59624 15.3791 6.66825 15.9717 6.94348C16.5643 7.21871 17.0708 7.68479 17.4272 8.28279C17.7836 8.88079 17.9738 9.58384 17.9738 10.303C17.9738 11.2675 17.6321 12.1924 17.0239 12.8743C16.4157 13.5563 15.5907 13.9394 14.7306 13.9394ZM25.2602 14.3273C25.9521 13.4538 26.404 12.3746 26.5616 11.2198C26.7192 10.065 26.5758 8.88374 26.1486 7.81819C25.7214 6.75265 25.0286 5.84825 24.1537 5.21385C23.2788 4.57946 22.2589 4.24212 21.217 4.24243C20.9303 4.24243 20.6553 4.37014 20.4526 4.59745C20.2498 4.82477 20.1359 5.13308 20.1359 5.45455C20.1359 5.77603 20.2498 6.08434 20.4526 6.31165C20.6553 6.53897 20.9303 6.66668 21.217 6.66668C22.0772 6.66668 22.9021 7.04979 23.5103 7.73175C24.1185 8.4137 24.4602 9.33862 24.4602 10.303C24.4587 10.9397 24.3081 11.5647 24.0235 12.1157C23.739 12.6666 23.3304 13.1241 22.8386 13.4424C22.6783 13.5461 22.5445 13.6942 22.4498 13.8724C22.3552 14.0507 22.3029 14.2532 22.2981 14.4606C22.2935 14.6664 22.3358 14.8701 22.4209 15.0525C22.5061 15.2348 22.6312 15.3899 22.7846 15.5031L23.2062 15.8182L23.3467 15.9031C24.6498 16.596 25.7492 17.6921 26.5153 19.0622C27.2814 20.4323 27.6824 22.0193 27.671 23.6364C27.671 23.9579 27.7849 24.2662 27.9876 24.4935C28.1904 24.7208 28.4653 24.8485 28.7521 24.8485C29.0388 24.8485 29.3137 24.7208 29.5165 24.4935C29.7192 24.2662 29.8331 23.9579 29.8331 23.6364C29.842 21.7763 29.4265 19.9446 28.6261 18.3153C27.8257 16.6859 26.667 15.3131 25.2602 14.3273Z" fill="black"/>
    <path d="M4.573 15.2023C3.88115 14.2966 3.42922 13.1777 3.2716 11.9804C3.11399 10.7831 3.25741 9.5583 3.68461 8.45352C4.11181 7.34874 4.80457 6.41104 5.6795 5.75329C6.55444 5.09553 7.57425 4.74577 8.6162 4.74609C8.90291 4.74609 9.17789 4.8785 9.38063 5.11419C9.58337 5.34988 9.69727 5.66954 9.69727 6.00285C9.69727 6.33616 9.58337 6.65582 9.38063 6.89151C9.17789 7.1272 8.90291 7.2596 8.6162 7.2596C7.75604 7.2596 6.93112 7.65683 6.3229 8.36389C5.71468 9.07095 5.37299 10.0299 5.37299 11.0299C5.37452 11.69 5.5251 12.338 5.80967 12.9092C6.09425 13.4805 6.50284 13.9548 6.99459 14.2849C7.15487 14.3923 7.28874 14.5458 7.38338 14.7307C7.47803 14.9155 7.53027 15.1255 7.53513 15.3405C7.53965 15.5539 7.49736 15.7651 7.41225 15.9542C7.32714 16.1433 7.202 16.304 7.04864 16.4213L6.62703 16.7481L6.48649 16.8361C5.18337 17.5546 4.08402 18.691 3.3179 20.1116C2.55178 21.5321 2.15081 23.1776 2.16221 24.8542C2.16221 25.1875 2.04831 25.5071 1.84557 25.7428C1.64283 25.9785 1.36786 26.1109 1.08114 26.1109C0.794425 26.1109 0.51945 25.9785 0.31671 25.7428C0.113971 25.5071 7.34329e-05 25.1875 7.34329e-05 24.8542C-0.00876427 22.9256 0.406746 21.0264 1.20712 19.3371C2.0075 17.6478 3.16615 16.2244 4.573 15.2023Z" fill="black"/>
</svg>
