<svg width="24" height="24" viewBox="0 0 24 24" fill="none" xmlns="http://www.w3.org/2000/svg">
<path d="M11.7417 6.46006C12.9884 6.44001 14.193 6.91088 15.0956 7.77106L17.5899 5.27674C16.0074 3.7916 13.9119 2.97599 11.7417 3.00054C10.1219 3.00028 8.53396 3.4504 7.15522 4.30062C5.77649 5.15084 4.6613 6.36766 3.93427 7.81514L6.84051 10.0685C7.17714 9.02985 7.83116 8.12294 8.71044 7.47558C9.58972 6.82822 10.6499 6.47304 11.7417 6.46006Z" fill="#EA4335"/>
<path d="M20.1101 11.94C20.1073 11.385 20.0611 10.831 19.9718 10.2832H11.7418V13.5679H16.4538C16.3517 14.0974 16.1453 14.6013 15.8464 15.0501C15.5476 15.499 15.1625 15.8839 14.7134 16.1823L17.5254 18.3673C18.3799 17.535 19.0511 16.5333 19.4961 15.4265C19.941 14.3197 20.1499 13.1322 20.1094 11.94H20.1101Z" fill="#4285F4"/>
<path d="M6.83672 13.4128C6.65557 12.8739 6.56216 12.3094 6.56008 11.7408C6.56038 11.1721 6.65383 10.6073 6.83672 10.0688L3.93048 7.81543C3.31864 9.03363 3 10.378 3 11.7412C3 13.1044 3.31864 14.4488 3.93048 15.667L6.83672 13.4128Z" fill="#FBBC05"/>
<path d="M11.7418 20.481C13.8704 20.5425 15.9415 19.7852 17.5284 18.3651L14.7164 16.1801C13.8318 16.7499 12.7967 17.0411 11.7448 17.0161C10.6523 17.0034 9.5913 16.6487 8.71092 16.0017C7.83054 15.3547 7.17509 14.448 6.83672 13.4092L3.93048 15.6633C4.65781 17.1116 5.7735 18.3292 7.1529 19.1799C8.53231 20.0307 10.1211 20.4811 11.7418 20.481Z" fill="#34A853"/>
</svg>