<svg width="24" height="24" viewBox="0 0 24 24" fill="none" xmlns="http://www.w3.org/2000/svg">
    <path d="M6.728 5.6H8C8.21217 5.6 8.41566 5.51571 8.56569 5.36569C8.71571 5.21566 8.8 5.01217 8.8 4.8C8.8 4.58783 8.71571 4.38434 8.56569 4.23431C8.41566 4.08429 8.21217 4 8 4H4.8C4.69546 4.00126 4.59218 4.02301 4.496 4.064C4.30052 4.14518 4.14518 4.30052 4.064 4.496C4.02301 4.59218 4.00126 4.69546 4 4.8V8C4 8.21217 4.08429 8.41566 4.23431 8.56569C4.38434 8.71571 4.58783 8.8 4.8 8.8C5.01217 8.8 5.21566 8.71571 5.36569 8.56569C5.51571 8.41566 5.6 8.21217 5.6 8V6.728L10.232 11.368C10.3064 11.443 10.3949 11.5025 10.4923 11.5431C10.5898 11.5837 10.6944 11.6046 10.8 11.6046C10.9056 11.6046 11.0102 11.5837 11.1077 11.5431C11.2051 11.5025 11.2936 11.443 11.368 11.368C11.443 11.2936 11.5025 11.2051 11.5431 11.1077C11.5837 11.0102 11.6046 10.9056 11.6046 10.8C11.6046 10.6944 11.5837 10.5898 11.5431 10.4923C11.5025 10.3949 11.443 10.3064 11.368 10.232L6.728 5.6ZM19.2 15.2C18.9878 15.2 18.7843 15.2843 18.6343 15.4343C18.4843 15.5843 18.4 15.7878 18.4 16V17.272L13.768 12.632C13.6174 12.4814 13.413 12.3967 13.2 12.3967C12.987 12.3967 12.7826 12.4814 12.632 12.632C12.4814 12.7826 12.3967 12.987 12.3967 13.2C12.3967 13.413 12.4814 13.6174 12.632 13.768L17.272 18.4H16C15.7878 18.4 15.5843 18.4843 15.4343 18.6343C15.2843 18.7843 15.2 18.9878 15.2 19.2C15.2 19.4122 15.2843 19.6157 15.4343 19.7657C15.5843 19.9157 15.7878 20 16 20H19.2C19.3045 19.9987 19.4078 19.977 19.504 19.936C19.6995 19.8548 19.8548 19.6995 19.936 19.504C19.977 19.4078 19.9987 19.3045 20 19.2V16C20 15.7878 19.9157 15.5843 19.7657 15.4343C19.6157 15.2843 19.4122 15.2 19.2 15.2Z" fill="#465D61"/>
</svg>
