<svg width="27" height="27" viewBox="0 0 27 22" fill="none" xmlns="http://www.w3.org/2000/svg">
    <path d="M13.5 10.125C13.2775 10.125 13.06 10.191 12.875 10.3146C12.69 10.4382 12.5458 10.6139 12.4606 10.8195C12.3755 11.025 12.3532 11.2512 12.3966 11.4695C12.44 11.6877 12.5472 11.8882 12.7045 12.0455C12.8618 12.2028 13.0623 12.31 13.2805 12.3534C13.4988 12.3968 13.725 12.3745 13.9305 12.2894C14.1361 12.2042 14.3118 12.06 14.4354 11.875C14.559 11.69 14.625 11.4725 14.625 11.25C14.625 10.9516 14.5065 10.6655 14.2955 10.4545C14.0845 10.2435 13.7984 10.125 13.5 10.125ZM21.375 2.25H5.625C4.72989 2.25 3.87145 2.60558 3.23851 3.23851C2.60558 3.87145 2.25 4.72989 2.25 5.625V16.875C2.25 17.7701 2.60558 18.6286 3.23851 19.2615C3.87145 19.8944 4.72989 20.25 5.625 20.25H18.6637L22.8263 24.4237C22.9314 24.528 23.056 24.6105 23.1931 24.6665C23.3302 24.7225 23.4769 24.7509 23.625 24.75C23.7726 24.7538 23.919 24.723 24.0525 24.66C24.2579 24.5756 24.4338 24.4323 24.5579 24.2481C24.6821 24.0639 24.7489 23.8471 24.75 23.625V5.625C24.75 4.72989 24.3944 3.87145 23.7615 3.23851C23.1286 2.60558 22.2701 2.25 21.375 2.25ZM22.5 20.9137L19.9237 18.3263C19.8186 18.222 19.694 18.1395 19.5569 18.0835C19.4198 18.0275 19.2731 17.9991 19.125 18H5.625C5.32663 18 5.04048 17.8815 4.8295 17.6705C4.61853 17.4595 4.5 17.1734 4.5 16.875V5.625C4.5 5.32663 4.61853 5.04048 4.8295 4.8295C5.04048 4.61853 5.32663 4.5 5.625 4.5H21.375C21.6734 4.5 21.9595 4.61853 22.1705 4.8295C22.3815 5.04048 22.5 5.32663 22.5 5.625V20.9137ZM9 10.125C8.7775 10.125 8.55999 10.191 8.37498 10.3146C8.18998 10.4382 8.04578 10.6139 7.96064 10.8195C7.87549 11.025 7.85321 11.2512 7.89662 11.4695C7.94002 11.6877 8.04717 11.8882 8.2045 12.0455C8.36184 12.2028 8.56229 12.31 8.78052 12.3534C8.99875 12.3968 9.22495 12.3745 9.43052 12.2894C9.63609 12.2042 9.81179 12.06 9.9354 11.875C10.059 11.69 10.125 11.4725 10.125 11.25C10.125 10.9516 10.0065 10.6655 9.7955 10.4545C9.58452 10.2435 9.29837 10.125 9 10.125ZM18 10.125C17.7775 10.125 17.56 10.191 17.375 10.3146C17.19 10.4382 17.0458 10.6139 16.9606 10.8195C16.8755 11.025 16.8532 11.2512 16.8966 11.4695C16.94 11.6877 17.0472 11.8882 17.2045 12.0455C17.3618 12.2028 17.5623 12.31 17.7805 12.3534C17.9988 12.3968 18.225 12.3745 18.4305 12.2894C18.6361 12.2042 18.8118 12.06 18.9354 11.875C19.059 11.69 19.125 11.4725 19.125 11.25C19.125 10.9516 19.0065 10.6655 18.7955 10.4545C18.5845 10.2435 18.2984 10.125 18 10.125Z" fill="#222222"/>
</svg>
