<svg width="20" height="34" viewBox="0 0 20 34" fill="none" xmlns="http://www.w3.org/2000/svg">
                            <path d="M18.8498 15.2248L4.69983 1.09985C4.46743 0.865526 4.19092 0.679541 3.88627 0.552619C3.58163 0.425698 3.25486 0.360352 2.92483 0.360352C2.5948 0.360352 2.26804 0.425698 1.96339 0.552619C1.65874 0.679541 1.38224 0.865526 1.14983 1.09985C0.684205 1.56825 0.422852 2.20188 0.422852 2.86235C0.422852 3.52281 0.684205 4.15644 1.14983 4.62485L13.5248 17.1248L1.14983 29.4998C0.684205 29.9683 0.422852 30.6019 0.422852 31.2623C0.422852 31.9228 0.684205 32.5564 1.14983 33.0248C1.38137 33.2611 1.65748 33.449 1.96217 33.5777C2.26686 33.7065 2.59406 33.7735 2.92483 33.7748C3.2556 33.7735 3.58281 33.7065 3.8875 33.5777C4.19218 33.449 4.4683 33.2611 4.69983 33.0248L18.8498 18.8998C19.1036 18.6657 19.3061 18.3816 19.4446 18.0654C19.5832 17.7491 19.6547 17.4076 19.6547 17.0623C19.6547 16.7171 19.5832 16.3756 19.4446 16.0593C19.3061 15.7431 19.1036 15.459 18.8498 15.2248V15.2248Z" fill="#00808B" />
                        </svg>